<svg xmlns="http://www.w3.org/2000/svg" width="590" height="416.335" viewBox="0 0 590 416.335"><g transform="translate(-1.226 33.767)"><path d="M45.347,111.319a12.431,12.431,0,0,1-.6-2.2C42.632,96.11,32.689,22.973,87.927-1.576c27.2-12.09,58.031-32.038,157.772,4.836C363.418,46.784,440.345-26.964,458.48-26.964s59.24-26.6,107.6,25.389,12.09,114.853,12.09,114.853-22.971,59.24-15.717,89.465,15.717,54.4,13.3,64.076-3.627,74.957-43.523,89.465-26.6,12.09-119.689,7.254S271.088,372,251.744,379.254,203.385,384.09,151.4,349.029s-64.076-24.18-90.674-39.9S-33.443,206.49,23.246,143.5C45.159,119.153,45.891,112.849,45.347,111.319Z" transform="translate(0)" fill="#fff" opacity="0.18"/><circle cx="18.183" cy="18.183" r="18.183" transform="translate(101.268 46.294)" fill="#fff"/><circle cx="12.38" cy="12.38" r="12.38" transform="translate(126.82 52.013)" fill="#fff"/><circle cx="9.962" cy="9.962" r="9.962" transform="translate(88.773 54.177)" fill="#fff"/><circle cx="18.183" cy="18.183" r="18.183" transform="translate(457.924 17.466)" fill="#fff"/><circle cx="12.38" cy="12.38" r="12.38" transform="translate(483.476 23.185)" fill="#fff"/><circle cx="9.962" cy="9.962" r="9.962" transform="translate(445.429 25.349)" fill="#fff"/><circle cx="18.183" cy="18.183" r="18.183" transform="translate(260.6 80.847)" fill="#fff"/><circle cx="12.38" cy="12.38" r="12.38" transform="translate(282.35 105.645) rotate(-67.5)" fill="#fff"/><circle cx="9.962" cy="9.962" r="9.962" transform="translate(248.105 88.729)" fill="#fff"/></g></svg>