<svg xmlns="http://www.w3.org/2000/svg" width="52" height="52" viewBox="0 0 52 52"><rect width="52" height="52" rx="10" fill="#00c7ff"/><g transform="translate(9.204 20.474)"><path d="M12.042,0H10.316L8.906-3.729H3.266L1.939,0H.2l5.1-13.3H6.921ZM8.4-5.13,6.309-10.8a5.428,5.428,0,0,1-.2-.891H6.067a4.969,4.969,0,0,1-.213.891L3.785-5.13ZM22.683-.557a7.8,7.8,0,0,1-3.674.779A5.925,5.925,0,0,1,14.463-1.6a6.744,6.744,0,0,1-1.707-4.8,7.068,7.068,0,0,1,1.92-5.158,6.518,6.518,0,0,1,4.871-1.967,7.809,7.809,0,0,1,3.136.547v1.661a6.359,6.359,0,0,0-3.154-.8,4.84,4.84,0,0,0-3.716,1.531,5.767,5.767,0,0,0-1.424,4.091A5.487,5.487,0,0,0,15.72-2.621a4.53,4.53,0,0,0,3.493,1.443,6.553,6.553,0,0,0,3.47-.891Zm4.268-4.472V0H25.392V-13.3h3.655a4.825,4.825,0,0,1,3.307,1.039,3.71,3.71,0,0,1,1.174,2.932,4.032,4.032,0,0,1-1.3,3.1A4.98,4.98,0,0,1,28.7-5.028Zm0-6.865v5.455h1.633a3.651,3.651,0,0,0,2.463-.738A2.611,2.611,0,0,0,31.9-9.259q0-2.635-3.117-2.635Z" transform="translate(-0.204 13.526)" fill="#fff"/></g></svg>