<svg xmlns="http://www.w3.org/2000/svg" width="19" height="18.738" viewBox="0 0 19 18.738"><path d="M4,4H8V8H4Z" transform="translate(-4 -4)" fill="#9ba0ab"/><path d="M4,15H8v4H4Z" transform="translate(-4 -7.631)" fill="#9ba0ab"/><path d="M4,26H8v4H4Z" transform="translate(-4 -11.262)" fill="#9ba0ab"/><path d="M15,4h4V8H15Z" transform="translate(-7.5 -4)" fill="#9ba0ab"/><path d="M15,15h4v4H15Z" transform="translate(-7.5 -7.631)" fill="#9ba0ab"/><path d="M15,26h4v4H15Z" transform="translate(-7.5 -11.262)" fill="#9ba0ab"/><path d="M26,4h4V8H26Z" transform="translate(-11 -4)" fill="#9ba0ab"/><path d="M26,15h4v4H26Z" transform="translate(-11 -7.631)" fill="#9ba0ab"/><path d="M26,26h4v4H26Z" transform="translate(-11 -11.262)" fill="#9ba0ab"/></svg>