<svg xmlns="http://www.w3.org/2000/svg" width="52" height="52" viewBox="0 0 52 52"><rect width="52" height="52" rx="10" fill="#f0573f"/><g transform="translate(8.744 20.696)"><path d="M1.744,0V-13.3H5.529a4.137,4.137,0,0,1,2.737.844,2.729,2.729,0,0,1,1.011,2.2,3.235,3.235,0,0,1-.612,1.967A3.3,3.3,0,0,1,6.977-7.106v.037A3.385,3.385,0,0,1,9.129-6.053a3.125,3.125,0,0,1,.807,2.231A3.478,3.478,0,0,1,8.711-1.058,4.558,4.558,0,0,1,5.622,0ZM3.3-11.894v4.3H4.9a3.03,3.03,0,0,0,2.013-.617,2.148,2.148,0,0,0,.733-1.74q0-1.939-2.551-1.939Zm0,5.7V-1.41H5.418A3.169,3.169,0,0,0,7.547-2.06,2.225,2.225,0,0,0,8.3-3.841Q8.3-6.2,5.093-6.2ZM14.194-5.028V0H12.636V-13.3h3.655A4.825,4.825,0,0,1,19.6-12.265a3.71,3.71,0,0,1,1.174,2.932,4.032,4.032,0,0,1-1.3,3.1,4.98,4.98,0,0,1-3.521,1.206Zm0-6.865v5.455h1.633a3.651,3.651,0,0,0,2.463-.738,2.611,2.611,0,0,0,.849-2.083q0-2.635-3.117-2.635ZM36.84,0H35.291V-8.925q0-1.058.13-2.588h-.037a8.275,8.275,0,0,1-.4,1.29L30.439,0h-.761L25.142-10.149a7.952,7.952,0,0,1-.4-1.364h-.037q.074.8.074,2.607V0h-1.5V-13.3h2.06l4.082,9.277a11.879,11.879,0,0,1,.612,1.6h.056q.4-1.095.64-1.633l4.166-9.24H36.84Z" transform="translate(-1.744 13.304)" fill="#fff"/></g></svg>