<svg xmlns="http://www.w3.org/2000/svg" width="52" height="52" viewBox="0 0 52 52"><rect width="52" height="52" rx="10" fill="#20ce88"/><g transform="translate(8.744 20.696)"><path d="M1.744,0V-13.3H5.529a4.137,4.137,0,0,1,2.737.844,2.729,2.729,0,0,1,1.011,2.2,3.235,3.235,0,0,1-.612,1.967A3.3,3.3,0,0,1,6.977-7.106v.037A3.385,3.385,0,0,1,9.129-6.053a3.125,3.125,0,0,1,.807,2.231A3.478,3.478,0,0,1,8.711-1.058,4.558,4.558,0,0,1,5.622,0ZM3.3-11.894v4.3H4.9a3.03,3.03,0,0,0,2.013-.617,2.148,2.148,0,0,0,.733-1.74q0-1.939-2.551-1.939Zm0,5.7V-1.41H5.418A3.169,3.169,0,0,0,7.547-2.06,2.225,2.225,0,0,0,8.3-3.841Q8.3-6.2,5.093-6.2ZM22.173,0H20.317L18.091-3.729a8.123,8.123,0,0,0-.594-.886,3.385,3.385,0,0,0-.589-.6,2.04,2.04,0,0,0-.649-.339,2.67,2.67,0,0,0-.784-.107h-1.28V0H12.636V-13.3h3.971a5.659,5.659,0,0,1,1.61.218,3.6,3.6,0,0,1,1.28.663,3.083,3.083,0,0,1,.849,1.109,3.676,3.676,0,0,1,.306,1.554,3.742,3.742,0,0,1-.209,1.276,3.331,3.331,0,0,1-.594,1.034,3.6,3.6,0,0,1-.928.775,4.736,4.736,0,0,1-1.22.5v.037a2.806,2.806,0,0,1,.58.339,3.191,3.191,0,0,1,.469.45,5.96,5.96,0,0,1,.441.589q.218.329.487.765ZM14.194-11.894v4.824H16.31a3.208,3.208,0,0,0,1.081-.176,2.5,2.5,0,0,0,.858-.506,2.293,2.293,0,0,0,.566-.807,2.7,2.7,0,0,0,.2-1.072,2.086,2.086,0,0,0-.691-1.665,2.969,2.969,0,0,0-2-.6ZM37.564,0H36.015V-8.925q0-1.058.13-2.588h-.037a8.275,8.275,0,0,1-.4,1.29L31.163,0H30.4L25.865-10.149a7.952,7.952,0,0,1-.4-1.364h-.037q.074.8.074,2.607V0H24V-13.3h2.06l4.082,9.277a11.879,11.879,0,0,1,.612,1.6h.056q.4-1.095.64-1.633l4.166-9.24h1.948Z" transform="translate(-1.744 13.304)" fill="#fff"/></g></svg>