<svg xmlns="http://www.w3.org/2000/svg" width="11.292" height="11.292" viewBox="0 0 11.292 11.292"><path d="M12.735,3.863H8.7V3.057A.807.807,0,0,0,7.9,2.25H3.057a.807.807,0,0,0-.807.807v8.066a.807.807,0,0,0,.807.807H7.089v.807a.807.807,0,0,0,.807.807h4.839a.807.807,0,0,0,.807-.807V4.67A.807.807,0,0,0,12.735,3.863ZM3.057,7.493H5.545L4.5,8.537l.569.569L7.089,7.089,5.073,5.073,4.5,5.642l1.04,1.045H3.057V3.057H7.9v8.066H3.057ZM7.9,12.735v-.807a.807.807,0,0,0,.807-.807V4.67h4.033V8.3H10.247l1.04-1.045-.569-.569L8.7,8.7l2.016,2.016.569-.569-1.04-1.045h2.488v3.63Z" transform="translate(-2.25 -2.25)" fill="#9ba0ab"/></svg>