<svg xmlns="http://www.w3.org/2000/svg" width="11.292" height="12.993" viewBox="0 0 11.292 12.993"><g transform="translate(-12.101 5)"><g transform="translate(12.101 -5)"><path d="M34.785,7.02l1.3.258a1.154,1.154,0,1,0,.1-.492L34.85,6.522a1.891,1.891,0,0,0-.53-1.307l1.725-2.437a1.459,1.459,0,1,0-.41-.29L33.928,4.9a1.894,1.894,0,0,0-2.4.377L29.284,3.535a1.156,1.156,0,1,0-.323.385L31.248,5.7a1.894,1.894,0,0,0,.471,2.273l-1.39,1.965a1.558,1.558,0,1,0,.383.328l1.427-2.018a1.9,1.9,0,0,0,1.551.035l1.693,2.5a1.312,1.312,0,1,0,.409-.292L34.122,8.021A1.9,1.9,0,0,0,34.785,7.02Z" transform="translate(-27.101 0)" fill="#9ba0ab"/></g></g></svg>