<svg xmlns="http://www.w3.org/2000/svg" width="52" height="52" viewBox="0 0 52 52"><rect width="52" height="52" rx="10" fill="#4b7e93"/><g transform="translate(9.561 20.897)"><path d="M1.561,0V-11.9H4.848q6.292,0,6.292,5.8A5.847,5.847,0,0,1,9.392-1.673,6.482,6.482,0,0,1,4.715,0ZM2.955-10.642v9.38H4.731A5.041,5.041,0,0,0,8.375-2.515a4.7,4.7,0,0,0,1.3-3.553q0-4.574-4.864-4.574ZM25.99,0H24.6V-7.985q0-.946.116-2.316h-.033a7.4,7.4,0,0,1-.357,1.154L20.263,0h-.681L15.523-9.081a7.115,7.115,0,0,1-.357-1.22h-.033q.066.714.066,2.333V0H13.854V-11.9H15.7L19.35-3.6A10.628,10.628,0,0,1,19.9-2.175h.05q.357-.979.573-1.461L24.247-11.9H25.99Zm2.947-.481V-2.125a3.192,3.192,0,0,0,.677.448,5.481,5.481,0,0,0,.83.336,6.608,6.608,0,0,0,.876.212,4.883,4.883,0,0,0,.813.075,3.186,3.186,0,0,0,1.922-.477,1.614,1.614,0,0,0,.635-1.374,1.613,1.613,0,0,0-.212-.838,2.384,2.384,0,0,0-.585-.652,5.807,5.807,0,0,0-.884-.564q-.51-.27-1.1-.569-.623-.315-1.162-.639a5.036,5.036,0,0,1-.938-.714,2.978,2.978,0,0,1-.627-.884,2.736,2.736,0,0,1-.228-1.158,2.723,2.723,0,0,1,.357-1.415,3.061,3.061,0,0,1,.938-.992,4.252,4.252,0,0,1,1.324-.581,6.062,6.062,0,0,1,1.515-.191,5.805,5.805,0,0,1,2.565.423v1.569a4.649,4.649,0,0,0-2.706-.73,4.45,4.45,0,0,0-.913.1,2.579,2.579,0,0,0-.813.311,1.8,1.8,0,0,0-.581.556,1.476,1.476,0,0,0-.224.83,1.709,1.709,0,0,0,.17.789,1.933,1.933,0,0,0,.5.606,5,5,0,0,0,.809.531q.477.257,1.1.564.639.315,1.212.664a5.54,5.54,0,0,1,1,.772,3.431,3.431,0,0,1,.685.938A2.637,2.637,0,0,1,36.151-3a2.989,2.989,0,0,1-.344,1.49,2.827,2.827,0,0,1-.93.992,4.06,4.06,0,0,1-1.349.552,7.387,7.387,0,0,1-1.61.17,6.562,6.562,0,0,1-.7-.046q-.415-.046-.847-.133A6.909,6.909,0,0,1,29.556-.2,2.544,2.544,0,0,1,28.937-.481Z" transform="translate(-1.561 12.103)" fill="#fff"/></g></svg>