<svg xmlns="http://www.w3.org/2000/svg" width="10.292" height="9.605" viewBox="0 0 10.292 9.605"><g transform="translate(-4 -4)"><path d="M4.686,7.3H7.3V4.686h3.564V7.561h.686V4.686A.686.686,0,0,0,10.861,4h-4.5L4,6.357v6.563a.686.686,0,0,0,.686.686h6.175a.686.686,0,0,0,.686-.686H4.686Zm0-.659L6.638,4.686h.106V6.744H4.686Z" fill="#9ba0ab"/><path d="M20.883,16.192a.343.343,0,0,0-.484.484l1.115,1.111H17.343a.343.343,0,1,0,0,.686h4.182L20.4,19.6a.343.343,0,1,0,.484.484l1.949-1.952Z" transform="translate(-8.54 -7.955)" fill="#9ba0ab"/></g></svg>