<svg xmlns="http://www.w3.org/2000/svg" width="19.315" height="19.086" viewBox="0 0 19.315 19.086"><path d="M240.3,190.9l1.7-.093,5.893-4.933-1.351-1.479-5.894,4.937Zm0,0" transform="translate(-228.577 -175.794)" fill="#b7bbc3"/><path d="M220.862,17.559h2.157L219.4,14.1v2.058A1.437,1.437,0,0,0,220.862,17.559Zm0,0" transform="translate(-208.694 -13.444)" fill="#b7bbc3"/><path d="M13.645,15.942l-2.508.135h-.029a.5.5,0,0,1-.371-.163.464.464,0,0,1-.107-.4l.512-2.315a.478.478,0,0,1,.156-.257l3.7-3.1V5.05H12.162A2.389,2.389,0,0,1,9.723,2.717V0H1.463A1.437,1.437,0,0,0,0,1.4V17.687a1.437,1.437,0,0,0,1.464,1.4h12.08a1.437,1.437,0,0,0,1.464-1.4V14.934l-1.069.891a.519.519,0,0,1-.293.117ZM3.176,6.212H7.762a.467.467,0,1,1,0,.933H3.176a.467.467,0,1,1,0-.933Zm0,3.07h9.172a.467.467,0,1,1,0,.933H3.176a.467.467,0,1,1,0-.933ZM9.6,16.357H3.176a.467.467,0,1,1,0-.933H9.6a.467.467,0,1,1,0,.933Zm0-3.071H3.176a.467.467,0,1,1,0-.933H9.6a.467.467,0,1,1,0,.933Zm0,0" transform="translate(0 -0.001)" fill="#b7bbc3"/></svg>