<svg xmlns="http://www.w3.org/2000/svg" width="52" height="52" viewBox="0 0 52 52"><rect width="52" height="52" rx="10" fill="#7c8cff"/><g transform="translate(11.872 20.474)"><path d="M11.689-.909A8.9,8.9,0,0,1,7.236.223,6.085,6.085,0,0,1,2.63-1.614,6.737,6.737,0,0,1,.872-6.476a6.918,6.918,0,0,1,1.953-5.07,6.657,6.657,0,0,1,4.949-1.981,8.423,8.423,0,0,1,3.646.705V-11.1A7,7,0,0,0,7.6-12.116a4.775,4.775,0,0,0-3.665,1.54A5.632,5.632,0,0,0,2.5-6.587,5.636,5.636,0,0,0,3.832-2.621a4.65,4.65,0,0,0,3.6,1.443,5.562,5.562,0,0,0,2.7-.622V-5.529H7.218v-1.41h4.472ZM24.511-5.381q0,5.6-5.056,5.6-4.843,0-4.843-5.39V-13.3H16.17V-5.27q0,4.091,3.451,4.091,3.331,0,3.331-3.952V-13.3h1.559ZM29.391,0H27.832V-13.3h1.559Z" transform="translate(-0.872 13.526)" fill="#fff"/></g></svg>