<svg xmlns="http://www.w3.org/2000/svg" width="18.714" height="21.834" viewBox="0 0 18.714 21.834"><path d="M16.619.237A2.023,2.023,0,0,1,18.1.846a1.966,1.966,0,0,1,.609,1.438V16.856a2.08,2.08,0,0,1-2.1,2.1H12.476L9.357,22.071,6.237,18.951H2.1a2.023,2.023,0,0,1-1.486-.609A2.023,2.023,0,0,1,0,16.856V2.284A1.966,1.966,0,0,1,.609.846,2.023,2.023,0,0,1,2.1.237ZM10.381,16.856v-2.1H8.334v2.1Zm2.145-8.041A3.19,3.19,0,0,0,13.5,6.476,4.045,4.045,0,0,0,12.281,3.5,3.988,3.988,0,0,0,9.357,2.284,3.988,3.988,0,0,0,6.433,3.5,4.045,4.045,0,0,0,5.214,6.476H7.261a2.081,2.081,0,0,1,2.1-2.1,2.08,2.08,0,0,1,2.1,2.1,2.008,2.008,0,0,1-.633,1.462L9.552,9.253a3.988,3.988,0,0,0-1.219,2.924v.536h2.047a3.953,3.953,0,0,1,.293-1.682A5.379,5.379,0,0,1,11.6,9.74Z" transform="translate(0 -0.237)" fill="#b7bbc3" opacity="0.4"/></svg>