<svg xmlns="http://www.w3.org/2000/svg" width="11" height="10.678" viewBox="0 0 11 10.678"><path d="M8.5,12.629a6.442,6.442,0,0,0,1.429-.155l-.966-.966c-.15.012-.3.021-.462.021a4.591,4.591,0,0,1-4.359-2.75,4.753,4.753,0,0,1,.829-1.264L4.2,6.746A5.855,5.855,0,0,0,3.029,8.6a.547.547,0,0,0,0,.348A5.768,5.768,0,0,0,8.5,12.629Zm0-7.7a5.9,5.9,0,0,0-2.532.54L3.939,3.44l-.777.777,9.9,9.9.778-.778-1.826-1.826a5.987,5.987,0,0,0,1.958-2.562.547.547,0,0,0,0-.348A5.769,5.769,0,0,0,8.5,4.929Zm2.735,5.807L9.981,9.482a1.6,1.6,0,0,0,.169-.7A1.661,1.661,0,0,0,8.5,7.129a1.582,1.582,0,0,0-.7.17L6.8,6.3a5.093,5.093,0,0,1,1.7-.276,4.591,4.591,0,0,1,4.359,2.75A4.707,4.707,0,0,1,11.235,10.736Z" transform="translate(-3 -3.44)" fill="#9ba0ab"/></svg>