<svg xmlns="http://www.w3.org/2000/svg" width="22.286" height="21.625" viewBox="0 0 22.286 21.625"><path d="M12.3,1.125a11.333,11.333,0,0,0-7.82,3.111V1.125H3V6.9H8.945V5.454H5.334A9.812,9.812,0,0,1,12.3,2.568a9.527,9.527,0,0,1,9.655,9.369,9.527,9.527,0,0,1-9.655,9.37,9.527,9.527,0,0,1-9.656-9.37H1.16a10.814,10.814,0,0,0,6.879,9.99,11.393,11.393,0,0,0,12.143-2.344A10.579,10.579,0,0,0,22.6,7.8,11.151,11.151,0,0,0,12.3,1.125Z" transform="translate(-1.16 -1.125)" fill="#b7bbc3"/><path d="M16.862,7.872l-.025,8.437H22.88V14.775H18.346l.021-6.9-1.5,0Z" transform="translate(-7.498 -2.972)" fill="#b7bbc3"/></svg>