<svg xmlns="http://www.w3.org/2000/svg" width="20.105" height="16" viewBox="0 0 20.105 16"><path d="M17.8,9.843v5.986a.809.809,0,0,1-.8.8H12.209V11.838H9.017v4.789H4.228a.809.809,0,0,1-.8-.8V9.843a.166.166,0,0,1,.006-.037.166.166,0,0,0,.006-.037l7.171-5.911,7.171,5.911a.171.171,0,0,1,.013.075Zm2.781-.861L19.8,9.9a.423.423,0,0,1-.262.137h-.037a.384.384,0,0,1-.262-.087l-8.631-7.2-8.629,7.2a.463.463,0,0,1-.3.087A.423.423,0,0,1,1.423,9.9L.65,8.982a.4.4,0,0,1-.087-.293A.364.364,0,0,1,.7,8.421L9.666.952a1.546,1.546,0,0,1,1.9,0L14.6,3.5V1.064a.385.385,0,0,1,.4-.4H17.4a.385.385,0,0,1,.4.4V6.152l2.731,2.27a.363.363,0,0,1,.137.268.4.4,0,0,1-.087.293Z" transform="translate(-0.562 -0.627)" fill="#b7bbc3" opacity="0.5"/></svg>