<svg xmlns="http://www.w3.org/2000/svg" width="52" height="52" viewBox="0 0 52 52"><rect width="52" height="52" rx="10" fill="#00506d"/><g transform="translate(10.744 20.696)"><path d="M3.3,0H1.744V-13.3H3.3ZM17.1,0H15.373l-1.41-3.729H8.322L7,0H5.26l5.1-13.3h1.614ZM13.452-5.13,11.365-10.8a5.428,5.428,0,0,1-.2-.891h-.037a4.969,4.969,0,0,1-.213.891L8.841-5.13ZM32.619,0H31.07V-8.925q0-1.058.13-2.588h-.037a8.275,8.275,0,0,1-.4,1.29L26.218,0h-.761L20.92-10.149a7.952,7.952,0,0,1-.4-1.364h-.037q.074.8.074,2.607V0h-1.5V-13.3h2.06L25.2-4.026a11.879,11.879,0,0,1,.612,1.6h.056q.4-1.095.64-1.633l4.166-9.24h1.948Z" transform="translate(-1.744 13.304)" fill="#fff"/></g></svg>