<svg xmlns="http://www.w3.org/2000/svg" width="27.708" height="22.08" viewBox="0 0 27.708 22.08"><g transform="translate(0 -52)"><path d="M27.276,52H.433A.433.433,0,0,0,0,52.433V73.647a.433.433,0,0,0,.433.433H27.276a.433.433,0,0,0,.433-.433V52.433A.433.433,0,0,0,27.276,52Z" fill="#f5f4f7"/><path d="M1.3,73.647V52.433A.433.433,0,0,1,1.732,52H.433A.433.433,0,0,0,0,52.433V73.647a.433.433,0,0,0,.433.433h1.3A.433.433,0,0,1,1.3,73.647Z" fill="#ebe8ef"/><path d="M27.276,52H.433A.433.433,0,0,0,0,52.433v3.031H27.708V52.433A.433.433,0,0,0,27.276,52Z" fill="#e76c91"/><path d="M1.732,52H.433A.433.433,0,0,0,0,52.433v3.031H1.3V52.433A.433.433,0,0,1,1.732,52Z" fill="#e45781"/><g transform="translate(22.54 53.326)"><circle cx="0.406" cy="0.406" r="0.406" transform="translate(1.299)" fill="#dd2d62"/><circle cx="0.406" cy="0.406" r="0.406" fill="#dd2d62"/><circle cx="0.406" cy="0.406" r="0.406" transform="translate(2.598)" fill="#dd2d62"/></g><path d="M58.824,148H48.433c-.239,0-.433.076-.433.171v5.287c0,.094.194.171.433.171H58.824c.239,0,.433-.076.433-.171v-5.287C59.257,148.076,59.063,148,58.824,148Z" transform="translate(-45.402 -89.722)" fill="#2699fb"/><path d="M289.525,148h-9.092a.433.433,0,0,0-.433.433V153.2a.433.433,0,0,0,.433.433h9.092a.433.433,0,0,0,.433-.433v-4.762A.433.433,0,0,0,289.525,148Z" transform="translate(-272.045 -86.313)" fill="#f6ef72"/><path d="M289.525,276h-9.092a.393.393,0,0,0-.433.334v5.014a.393.393,0,0,0,.433.334h9.092a.393.393,0,0,0,.433-.334v-5.014A.393.393,0,0,0,289.525,276Z" transform="translate(-264.847 -210.795)" fill="#20ce88"/></g></svg>