<svg xmlns="http://www.w3.org/2000/svg" width="52" height="52" viewBox="0 0 52 52"><rect width="52" height="52" rx="10" fill="#0091e3"/><g transform="translate(9.744 20.696)"><path d="M15.308,0H13.758V-8.925q0-1.058.13-2.588h-.037a8.275,8.275,0,0,1-.4,1.29L8.906,0H8.146L3.609-10.149a7.952,7.952,0,0,1-.4-1.364H3.173q.074.8.074,2.607V0h-1.5V-13.3H3.8L7.886-4.026a11.879,11.879,0,0,1,.612,1.6h.056q.4-1.095.64-1.633l4.166-9.24h1.948Zm10.4,0h-6.9V-13.3h1.559V-1.41h5.344Zm3.6-5.028V0H27.749V-13.3H31.4a4.825,4.825,0,0,1,3.307,1.039,3.71,3.71,0,0,1,1.174,2.932,4.032,4.032,0,0,1-1.3,3.1,4.98,4.98,0,0,1-3.521,1.206Zm0-6.865v5.455H30.94A3.651,3.651,0,0,0,33.4-7.176a2.611,2.611,0,0,0,.849-2.083q0-2.635-3.117-2.635Z" transform="translate(-1.744 13.304)" fill="#fff"/></g></svg>