<svg xmlns="http://www.w3.org/2000/svg" width="21" height="18.828" viewBox="0 0 21 18.828"><g opacity="0.4"><path d="M11.586,332.443V331H0v1.449a2.392,2.392,0,0,0,2.374,2.4h10.38c-.1-.091-.2-.17-.286-.261a3.02,3.02,0,0,1-.881-2.143Zm0,0" transform="translate(0 -316.019)" fill="#b7bbc3"/><path d="M163.827,59.582l1.681,1.154,1.688-1.154A2.138,2.138,0,0,0,168.024,58V55.613l-2.512-1.242L163,55.61V58a2.136,2.136,0,0,0,.826,1.584Zm.379-2.254a.317.317,0,0,1,.448,0l.5.51,1.215-1.215a.317.317,0,1,1,.448.448l-1.44,1.441a.318.318,0,0,1-.224.094h0a.316.316,0,0,1-.224-.1l-.729-.737a.318.318,0,0,1,0-.449Zm0,0" transform="translate(-155.623 -51.91)" fill="#b7bbc3"/><path d="M390.715,0h-.01A1.722,1.722,0,0,0,389,1.709V4.616h3.394V1.7A1.7,1.7,0,0,0,390.715,0Zm0,0" transform="translate(-371.395)" fill="#b7bbc3"/><path d="M71.815,0a1.588,1.588,0,0,0-1.6,1.574l-.094,12.773h8.729a.33.33,0,0,1,.317.332v1.746a2.4,2.4,0,0,0,2.38,2.4h.008a2.381,2.381,0,0,0,2.364-2.4V1.71A2.426,2.426,0,0,1,84.673,0ZM73.7,3.5a.308.308,0,0,1,.167-.284L76.7,1.823a.312.312,0,0,1,.277,0l2.842,1.4a.308.308,0,0,1,.168.284V6.088a2.761,2.761,0,0,1-1.1,2.108L77.02,9.472a.313.313,0,0,1-.177.055.308.308,0,0,1-.176-.055L74.8,8.2a2.764,2.764,0,0,1-1.1-2.108Zm7.649,9.4h-8.69a.317.317,0,0,1,0-.634h8.69a.317.317,0,1,1,0,.634Zm0-1.675h-8.69a.317.317,0,0,1,0-.634h8.69a.317.317,0,1,1,0,.634Zm0,0" transform="translate(-66.952)" fill="#b7bbc3"/></g></svg>