<svg xmlns="http://www.w3.org/2000/svg" width="19.5" height="12.8" viewBox="0 0 19.5 12.8"><g opacity="0.4"><path d="M899.574,218.253l.769.826-1.543,0-3.691-3.953-1.273,2.149-1.823-6.292,6.651,1.951-2.78,1.362,3.691,3.953Z" transform="translate(-880.843 -206.282)" fill="#b7bbc3"/><path d="M744.19,158.7a.78.78,0,0,0,.688-.824v-3.055a.776.776,0,0,0-.709-.826H728.709a.776.776,0,0,0-.709.826v3.055a.776.776,0,0,0,.709.826h9.66l-.541-2.032Z" transform="translate(-728 -154)" fill="#b7bbc3"/><path d="M728.687,251a.768.768,0,0,0-.687.826v3.055a.768.768,0,0,0,.687.826h11.43L738.9,251Z" transform="translate(-728 -242.992)" fill="#b7bbc3"/><path d="M923.563,288.208l-.967,1.634h2.493Z" transform="translate(-909.066 -277.128)" fill="#b7bbc3"/></g></svg>