<svg xmlns="http://www.w3.org/2000/svg" width="18.818" height="25.147" viewBox="0 0 18.818 25.147"><path d="M22.183,10.5H3.712A2.151,2.151,0,0,0,1.5,12.581v6.244a2.151,2.151,0,0,0,2.212,2.081H22.183a2.151,2.151,0,0,0,2.211-2.081V12.581A2.151,2.151,0,0,0,22.182,10.5Zm0,8.325H3.712a.759.759,0,0,1-.118-.017c-.008,0-.012,0-.012.008l-.012-6.188a.193.193,0,0,1,.143-.048H5.662V15.7H7.744V12.581H9.825v4.162h2.081V12.581h2.081V15.7h2.081V12.581H18.15v4.162h2.081V12.581h1.952c.082,0,.127.029.13.008l.012,6.188A.193.193,0,0,1,22.183,18.825Z" transform="matrix(0.407, -0.914, 0.914, 0.407, -10.202, 18.014)" fill="#fed12e"/></svg>