<svg xmlns="http://www.w3.org/2000/svg" width="10.251" height="11.959" viewBox="0 0 10.251 11.959"><path d="M13.042,2.25H6.208A1.708,1.708,0,0,0,4.5,3.958V5.667H14.751V3.958A1.708,1.708,0,0,0,13.042,2.25Zm1.708,4.271H7.917V8.229h6.834Zm0,2.563H7.917v1.708h6.834Zm0,2.563H7.917v2.563h5.125A1.708,1.708,0,0,0,14.751,12.5ZM7.063,14.209V11.646H4.5V12.5a1.708,1.708,0,0,0,1.708,1.708ZM4.5,10.792H7.063V9.084H4.5Zm0-2.563H7.063V6.521H4.5Z" transform="translate(-4.5 -2.25)" fill="#fed12e" fill-rule="evenodd"/></svg>