<svg xmlns="http://www.w3.org/2000/svg" width="12.221" height="12.71" viewBox="0 0 12.221 12.71"><g transform="translate(-4.5 -4.5)"><path d="M18.536,16.728A2.933,2.933,0,1,1,15.6,19.661a2.933,2.933,0,0,1,2.933-2.933m0-.978a3.911,3.911,0,1,0,3.911,3.911A3.911,3.911,0,0,0,18.536,15.75Z" transform="translate(-5.725 -6.362)" fill="#646d82"/><path d="M15.255,4.5H5.478a.978.978,0,0,0-.978.978v9.777a.978.978,0,0,0,.978.978H7.433v-.978H5.478V8.411H16.232V5.478A.978.978,0,0,0,15.255,4.5ZM5.478,7.433V5.478h9.777V7.433Z" fill="#646d82"/><path d="M21.375,21.375v2.933l2.444-1.467Z" transform="translate(-9.542 -9.542)" fill="#646d82"/></g></svg>