<svg xmlns="http://www.w3.org/2000/svg" width="19.573" height="19.572" viewBox="0 0 19.573 19.572"><path d="M20.593,14.14a6.081,6.081,0,0,0,.05-.979c0-.343-.05-.636-.05-.979l2.1-1.615a.449.449,0,0,0,.1-.636l-2-3.376a.488.488,0,0,0-.6-.2l-2.5.979a7.3,7.3,0,0,0-1.7-.979l-.351-2.593a.537.537,0,0,0-.5-.391h-4a.537.537,0,0,0-.5.391l-.4,2.593a8.476,8.476,0,0,0-1.7.979l-2.5-.979a.469.469,0,0,0-.6.2l-2,3.376a.59.59,0,0,0,.1.636l2.152,1.615c0,.343-.05.636-.05.979s.05.636.05.979l-2.1,1.615a.449.449,0,0,0-.1.636l2,3.376a.488.488,0,0,0,.6.2l2.5-.979a7.3,7.3,0,0,0,1.7.979l.4,2.593a.485.485,0,0,0,.5.391h4a.537.537,0,0,0,.5-.391l.4-2.593a8.472,8.472,0,0,0,1.7-.979l2.5.979a.469.469,0,0,0,.6-.2l2-3.376a.588.588,0,0,0-.1-.636l-2.2-1.615Zm-7.457,2.446a3.426,3.426,0,1,1,3.5-3.425A3.443,3.443,0,0,1,13.136,16.587Z" transform="translate(-3.374 -3.375)" fill="#b7bbc3" opacity="0.4"/></svg>