<svg xmlns="http://www.w3.org/2000/svg" width="11.455" height="13.5" viewBox="0 0 11.455 13.5"><path d="M15.148,3.914a17.914,17.914,0,0,1-2.708-.961A18.409,18.409,0,0,1,9.952,1.639L9.727,1.5l-.221.143A18.409,18.409,0,0,1,7.019,2.956a17.914,17.914,0,0,1-2.712.957L4,3.991V7.4c0,5.478,5.535,7.527,5.588,7.548L9.727,15l.139-.049c.057,0,5.588-2.066,5.588-7.548V3.991Zm-1.87,2.72-4.57,4.439L6.123,8.483a.579.579,0,0,1,.818-.818l1.78,1.812L12.48,5.8a.579.579,0,0,1,.818.818Z" transform="translate(-4 -1.5)" fill="#646d82"/></svg>