<svg xmlns="http://www.w3.org/2000/svg" width="16.333" height="16.333" viewBox="0 0 16.333 16.333"><g transform="translate(0 0.001)"><path d="M0,260.942a.528.528,0,0,0,.362.479l3.161,1.043,1.043,3.161a.528.528,0,0,0,.987.042l3.379-7.919a.528.528,0,0,0-.693-.693L.32,260.434a.528.528,0,0,0-.32.508Z" transform="translate(0 -249.655)" fill="#b7bbc3"/><path d="M101.752,105.657A3.855,3.855,0,1,0,97.9,101.8a.448.448,0,1,1-.9,0,4.752,4.752,0,1,1,4.752,4.752.448.448,0,0,1,0-.9Z" transform="translate(-93.586 -93.635)" fill="#b7bbc3"/><path d="M8.166,15.376A7.209,7.209,0,1,0,.957,8.167a.478.478,0,0,1-.957,0A8.166,8.166,0,0,1,13.933,2.4,8.166,8.166,0,0,1,8.166,16.333a.478.478,0,0,1,0-.957Z" transform="translate(0 0)" fill="#b7bbc3"/></g></svg>