<svg xmlns="http://www.w3.org/2000/svg" width="16" height="20.219" viewBox="0 0 16 20.219"><g transform="translate(-53.419)" opacity="0.4"><g transform="translate(58.454 4.907)"><path d="M181.628,124.25l-.713,2.616h1.425Z" transform="translate(-180.915 -124.25)" fill="#b7bbc3"/></g><g transform="translate(53.419)"><path d="M68.2,0H54.64a1.223,1.223,0,0,0-1.221,1.221V11.888h16V1.221A1.223,1.223,0,0,0,68.2,0ZM61.689,10.011a1.288,1.288,0,0,1-.659.185q-.42,0-.5-.283L60.2,8.694H58.141l-.332,1.22q-.078.283-.5.283a1.287,1.287,0,0,1-.659-.185.525.525,0,0,1-.317-.439.53.53,0,0,1,.02-.107l1.815-5.954a.629.629,0,0,1,.356-.376,1.617,1.617,0,0,1,1.279,0,.63.63,0,0,1,.356.376l1.825,5.954a.544.544,0,0,1,.02.107A.525.525,0,0,1,61.689,10.011Zm4.68-.283a.394.394,0,0,1-.21.332.956.956,0,0,1-.532.137.775.775,0,0,1-.478-.146.431.431,0,0,1-.2-.354V9.467a1.916,1.916,0,0,1-1.484.827,1.231,1.231,0,0,1-.893-.346,1.339,1.339,0,0,1-.356-1.007,1.146,1.146,0,0,1,.591-1.1,3.622,3.622,0,0,1,1.693-.32h.351v-.1a.839.839,0,0,0-.176-.532.662.662,0,0,0-.556-.225,1.487,1.487,0,0,0-.771.181,1.255,1.255,0,0,1-.371.181.416.416,0,0,1-.371-.229,1,1,0,0,1-.137-.522q0-.322.542-.551a2.865,2.865,0,0,1,1.127-.229,2.289,2.289,0,0,1,1.674.547,1.846,1.846,0,0,1,.551,1.366V9.728Z" transform="translate(-53.419 0)" fill="#b7bbc3"/></g><g transform="translate(63.744 8.254)"><path d="M315.949,209.025a4.293,4.293,0,0,0-.532.027.851.851,0,0,0-.376.14.366.366,0,0,0-.166.321.336.336,0,0,0,.381.38.693.693,0,0,0,.488-.253.813.813,0,0,0,.244-.579v-.036Z" transform="translate(-314.875 -209.025)" fill="#b7bbc3"/></g><g transform="translate(53.419 13.074)"><path d="M53.419,331.08V337a1.223,1.223,0,0,0,1.221,1.221H68.2A1.223,1.223,0,0,0,69.419,337V331.08Zm3.388,1.405h3.076a.593.593,0,1,1,0,1.186H56.807a.593.593,0,1,1,0-1.186Zm5.461,3.073H56.807a.593.593,0,1,1,0-1.186h5.461a.593.593,0,0,1,0,1.186Zm3.722,0H64.515a.593.593,0,1,1,0-1.186H65.99a.593.593,0,1,1,0,1.186Z" transform="translate(-53.419 -331.08)" fill="#b7bbc3"/></g></g></svg>